<svg xmlns="http://www.w3.org/2000/svg" xmlns:xlink="http://www.w3.org/1999/xlink" style="vertical-align:-2.255ex" width="49.249ex" height="6.384ex" viewBox="0 -1778 21204.2 2748.8"><defs><path id="g" stroke-width="1" d="M33 157q0 101 76 192t171 92q51 0 90-49 16 30 46 30 13 0 23-8t10-20q0-13-37-160T374 68q0-25 7-33t21-9q9 1 20 9 21 20 41 96 6 20 10 21 2 1 10 1h4q19 0 19-9 0-6-5-27t-20-54-32-50Q436 0 417-8q-8-2-24-2-34 0-57 15t-30 31l-6 15q-1 1-4-1l-4-4q-59-56-120-56-55 0-97 40T33 157zm318 171q0 6-5 22t-23 35-46 20q-35 0-67-31t-50-81q-29-79-41-164v-11q0-8-1-12 0-45 18-62t43-18q38 0 75 33t44 51q2 4 27 107t26 111z"/><path id="a" stroke-width="1" d="M184-11q-68 0-110 45T31 147q0 100 73 186t170 97q1 1 140 1h138q1-1 3-2t4-2 3-2 3-3 2-2 2-4 1-4 1-5 1-6q0-44-65-44h-17q-10 0-14 1h-60l5-10q18-38 18-85 0-110-80-192T184-11zm177 289q0 80-85 80-124 0-161-174-1-4-1-6-8-37-8-61 0-50 25-70t57-21q54 0 99 47 29 30 47 80t22 80 5 45z"/><path id="c" stroke-width="1" d="M21 287q1 6 3 16t12 38 20 47 33 37 46 17q36 0 60-18t30-34 6-21q0-2 1-2l11 11q61 64 139 64 54 0 87-27t34-79-38-157-38-127q0-26 17-26 6 0 9 1 29 5 52 38t35 80q2 8 20 8 20 0 20-8 0-1-4-15-8-29-22-57t-46-56-69-27q-47 0-68 27t-21 56q0 19 36 120t37 152q0 59-44 59h-5q-86 0-145-101l-7-12-33-134Q156 26 151 16q-13-27-43-27-13 0-21 6T76 7t-2 10q0 13 38 163t40 163q1 5 1 23 0 39-24 39-38 0-63-100-6-20-6-21-2-6-19-6H27q-6 6-6 9z"/><path id="d" stroke-width="1" d="M60 749l4 1h22l28-24q94-85 137-212t43-264q0-68-10-131T261 12t-37-88-38-67-41-51-32-33-23-19l-4-4H63q-3 0-5 3t-3 9q1 1 11 13Q221-64 221 250T66 725q-10 12-11 13 0 8 5 11z"/><path id="e" stroke-width="1" d="M56 347q0 13 14 20h637q15-8 15-20 0-11-14-19l-318-1H72q-16 5-16 20zm0-194q0 15 16 20h636q14-10 14-20 0-13-15-20H70q-14 7-14 20z"/><path id="f" stroke-width="1" d="M23 287q1 3 2 8t5 22 10 31 15 33 20 30 26 22 33 9q75 0 96-64l10 9q62 55 118 55 65 0 102-47t37-114q0-108-76-199T249-10q-22 0-39 6-11 5-23 15t-19 17l-7 8q-1-1-22-87t-21-87q0-6 8-7t37-3h25q6-7 6-9t-3-18q-3-12-6-15t-13-4h-11q-9 0-34 1t-62 1q-70 0-89-2h-8q-7 7-7 11 2 27 13 35h20q34 1 39 12 3 6 61 239t61 247q1 5 1 14 0 41-25 41-22 0-37-28t-23-61-12-36q-2-2-16-2H29q-6 6-6 9zm155-185q22-76 74-76 30 0 58 23t46 58q18 34 36 108t19 110v6q0 74-61 74-11 0-22-3t-22-9-20-13-17-15-15-15-11-14-8-10l-3-4q0-1-3-14t-11-44-14-52q-26-106-26-110z"/><path id="b" stroke-width="1" d="M94 250q0 69 10 131t23 107 37 88 38 67 42 52 33 34 25 21h17q14 0 14-9 0-3-17-21t-41-53-49-86-42-138-17-193 17-192 41-139 49-86 42-53 17-21q0-9-15-9h-16l-28 24q-94 85-137 212T94 250z"/><path id="h" stroke-width="1" d="M213 578l-13-5q-14-5-40-10t-58-7H83v46h19q47 2 87 15t56 24 28 22q2 3 12 3 9 0 17-6V361l1-300q7-7 12-9t24-4 62-2h26V0h-11q-21 3-159 3-136 0-157-3H88v46h64q16 0 25 1t16 3 8 2 6 5 6 4v517z"/><path id="i" stroke-width="1" d="M56 237v13l14 20h299v150l1 150q10 13 19 13 13 0 20-15V270h298q15-8 15-20t-15-20H409V-68q-8-14-18-14h-4q-12 0-18 14v298H70q-14 7-14 20z"/><path id="j" stroke-width="1" d="M84 237v13l14 20h581q15-8 15-20t-15-20H98q-14 7-14 20z"/><path id="k" stroke-width="1" d="M630 29q0-20-21-20-5 0-22 16t-94 93L389 222 284 117Q178 13 175 11q-4-2-7-2-8 0-14 6t-7 14q0 7 14 22t94 95l104 104-104 104q-81 81-94 95t-14 22q0 9 6 14t15 5q5 0 7-1 3-2 109-106l105-105 104 104q77 77 94 93t22 16q21 0 21-20 0-7-10-18t-98-98L418 250l104-105q84-84 96-97t12-19z"/><path id="l" stroke-width="1" d="M109 429q-27 0-43 18t-16 44q0 71 53 123t132 52q91 0 152-56t62-145q0-43-20-82t-48-68-80-74q-36-31-100-92l-59-56 76-1q157 0 167 5 7 2 24 89v3h40v-3q-1-3-13-91T421 3V0H50v31q0 7 6 15t30 35q29 32 50 56 9 10 34 37t34 37 29 33 28 34 23 30 21 32 15 29 13 32 7 30 3 33q0 63-34 109t-97 46q-33 0-58-17t-35-33-10-19q0-1 5-1 18 0 37-14t19-46q0-25-16-42t-45-18z"/><path id="m" stroke-width="1" d="M78 250q0 24 17 42t43 18q24 0 42-16t19-43q0-25-17-43t-43-18-43 17-18 43zm447 0q0 24 17 42t43 18q24 0 42-16t19-43q0-25-17-43t-43-18-43 17-18 43zm447 0q0 24 17 42t43 18q24 0 42-16t19-43q0-25-17-43t-43-18-43 17-18 43z"/></defs><g fill="currentColor" stroke="currentColor" stroke-width="0" transform="scale(1 -1)"><use xlink:href="#a"/><g transform="translate(739)"><use xlink:href="#b"/><use x="389" xlink:href="#c"/><use x="990" xlink:href="#d"/></g><use x="2396" xlink:href="#e"/><path stroke="none" d="M3571 220h4046v60H3571z"/><g transform="translate(3631 782)"><use xlink:href="#f"/><g transform="translate(503 451)"><use transform="scale(.707)" xlink:href="#g"/><use x="748" y="-213" transform="scale(.5)" xlink:href="#h"/><use x="983" transform="scale(.707)" xlink:href="#i"/><use x="1761" transform="scale(.707)" xlink:href="#h"/></g><use x="712" y="-435" transform="scale(.707)" xlink:href="#h"/><use x="2425" xlink:href="#j"/><use x="3426" xlink:href="#h"/></g><g transform="translate(4253 -686)"><use xlink:href="#f"/><use x="712" y="-213" transform="scale(.707)" xlink:href="#h"/><use x="1179" xlink:href="#j"/><use x="2180" xlink:href="#h"/></g><use x="7961" xlink:href="#k"/><path stroke="none" d="M9082 220h4046v60H9082z"/><g transform="translate(9142 782)"><use xlink:href="#f"/><g transform="translate(503 451)"><use transform="scale(.707)" xlink:href="#g"/><use x="748" y="-213" transform="scale(.5)" xlink:href="#l"/><use x="983" transform="scale(.707)" xlink:href="#i"/><use x="1761" transform="scale(.707)" xlink:href="#h"/></g><use x="712" y="-435" transform="scale(.707)" xlink:href="#l"/><use x="2425" xlink:href="#j"/><use x="3426" xlink:href="#h"/></g><g transform="translate(9764 -686)"><use xlink:href="#f"/><use x="712" y="-213" transform="scale(.707)" xlink:href="#l"/><use x="1179" xlink:href="#j"/><use x="2180" xlink:href="#h"/></g><use x="13471" xlink:href="#k"/><use x="14472" xlink:href="#m"/><use x="15866" xlink:href="#k"/><g><path stroke="none" d="M16987 220h4096v60h-4096z"/><g transform="translate(17047 676)"><use xlink:href="#f"/><g transform="translate(503 456)"><use transform="scale(.707)" xlink:href="#g"/><use x="748" y="-213" transform="scale(.5)" xlink:href="#c"/><use x="1054" transform="scale(.707)" xlink:href="#i"/><use x="1832" transform="scale(.707)" xlink:href="#h"/></g><use x="712" y="-212" transform="scale(.707)" xlink:href="#c"/><use x="2475" xlink:href="#j"/><use x="3476" xlink:href="#h"/></g><g transform="translate(17659 -686)"><use xlink:href="#f"/><use x="712" y="-213" transform="scale(.707)" xlink:href="#c"/><use x="1250" xlink:href="#j"/><use x="2251" xlink:href="#h"/></g></g></g></svg>